<?xml version="1.0" encoding="utf-8"?>
<!DOCTYPE svg PUBLIC "-//W3C//DTD SVG 20010904//EN" "http://www.w3.org/TR/2001/REC-SVG-20010904/DTD/svg10.dtd">
<svg xmlns="http://www.w3.org/2000/svg" xml:space="preserve" xmlns:xlink="http://www.w3.org/1999/xlink" width="800" height="800" viewBox="0 0 800 800">
<defs>
<mask id="qrmask"><g fill="#ffffff">
<g transform="translate(320,64) scale(5.3333333333333)"><rect width="6" height="6"/></g>
<g transform="translate(384,64) scale(5.3333333333333)"><rect width="6" height="6"/></g>
<g transform="translate(320,96) scale(5.3333333333333)"><rect width="6" height="6"/></g>
<g transform="translate(416,96) scale(5.3333333333333)"><rect width="6" height="6"/></g>
<g transform="translate(448,96) scale(5.3333333333333)"><rect width="6" height="6"/></g>
<g transform="translate(320,128) scale(5.3333333333333)"><rect width="6" height="6"/></g>
<g transform="translate(352,128) scale(5.3333333333333)"><rect width="6" height="6"/></g>
<g transform="translate(416,128) scale(5.3333333333333)"><rect width="6" height="6"/></g>
<g transform="translate(320,224) scale(5.3333333333333)"><rect width="6" height="6"/></g>
<g transform="translate(384,224) scale(5.3333333333333)"><rect width="6" height="6"/></g>
<g transform="translate(416,224) scale(5.3333333333333)"><rect width="6" height="6"/></g>
<g transform="translate(448,224) scale(5.3333333333333)"><rect width="6" height="6"/></g>
<g transform="translate(320,256) scale(5.3333333333333)"><rect width="6" height="6"/></g>
<g transform="translate(384,256) scale(5.3333333333333)"><rect width="6" height="6"/></g>
<g transform="translate(448,256) scale(5.3333333333333)"><rect width="6" height="6"/></g>
<g transform="translate(320,288) scale(5.3333333333333)"><rect width="6" height="6"/></g>
<g transform="translate(384,288) scale(5.3333333333333)"><rect width="6" height="6"/></g>
<g transform="translate(128,320) scale(5.3333333333333)"><rect width="6" height="6"/></g>
<g transform="translate(160,320) scale(5.3333333333333)"><rect width="6" height="6"/></g>
<g transform="translate(192,320) scale(5.3333333333333)"><rect width="6" height="6"/></g>
<g transform="translate(256,320) scale(5.3333333333333)"><rect width="6" height="6"/></g>
<g transform="translate(320,320) scale(5.3333333333333)"><rect width="6" height="6"/></g>
<g transform="translate(352,320) scale(5.3333333333333)"><rect width="6" height="6"/></g>
<g transform="translate(480,320) scale(5.3333333333333)"><rect width="6" height="6"/></g>
<g transform="translate(512,320) scale(5.3333333333333)"><rect width="6" height="6"/></g>
<g transform="translate(544,320) scale(5.3333333333333)"><rect width="6" height="6"/></g>
<g transform="translate(640,320) scale(5.3333333333333)"><rect width="6" height="6"/></g>
<g transform="translate(672,320) scale(5.3333333333333)"><rect width="6" height="6"/></g>
<g transform="translate(704,320) scale(5.3333333333333)"><rect width="6" height="6"/></g>
<g transform="translate(320,352) scale(5.3333333333333)"><rect width="6" height="6"/></g>
<g transform="translate(448,352) scale(5.3333333333333)"><rect width="6" height="6"/></g>
<g transform="translate(544,352) scale(5.3333333333333)"><rect width="6" height="6"/></g>
<g transform="translate(608,352) scale(5.3333333333333)"><rect width="6" height="6"/></g>
<g transform="translate(640,352) scale(5.3333333333333)"><rect width="6" height="6"/></g>
<g transform="translate(672,352) scale(5.3333333333333)"><rect width="6" height="6"/></g>
<g transform="translate(704,352) scale(5.3333333333333)"><rect width="6" height="6"/></g>
<g transform="translate(64,384) scale(5.3333333333333)"><rect width="6" height="6"/></g>
<g transform="translate(128,384) scale(5.3333333333333)"><rect width="6" height="6"/></g>
<g transform="translate(256,384) scale(5.3333333333333)"><rect width="6" height="6"/></g>
<g transform="translate(320,384) scale(5.3333333333333)"><rect width="6" height="6"/></g>
<g transform="translate(352,384) scale(5.3333333333333)"><rect width="6" height="6"/></g>
<g transform="translate(480,384) scale(5.3333333333333)"><rect width="6" height="6"/></g>
<g transform="translate(512,384) scale(5.3333333333333)"><rect width="6" height="6"/></g>
<g transform="translate(576,384) scale(5.3333333333333)"><rect width="6" height="6"/></g>
<g transform="translate(608,384) scale(5.3333333333333)"><rect width="6" height="6"/></g>
<g transform="translate(704,384) scale(5.3333333333333)"><rect width="6" height="6"/></g>
<g transform="translate(96,416) scale(5.3333333333333)"><rect width="6" height="6"/></g>
<g transform="translate(160,416) scale(5.3333333333333)"><rect width="6" height="6"/></g>
<g transform="translate(192,416) scale(5.3333333333333)"><rect width="6" height="6"/></g>
<g transform="translate(224,416) scale(5.3333333333333)"><rect width="6" height="6"/></g>
<g transform="translate(288,416) scale(5.3333333333333)"><rect width="6" height="6"/></g>
<g transform="translate(352,416) scale(5.3333333333333)"><rect width="6" height="6"/></g>
<g transform="translate(384,416) scale(5.3333333333333)"><rect width="6" height="6"/></g>
<g transform="translate(416,416) scale(5.3333333333333)"><rect width="6" height="6"/></g>
<g transform="translate(448,416) scale(5.3333333333333)"><rect width="6" height="6"/></g>
<g transform="translate(512,416) scale(5.3333333333333)"><rect width="6" height="6"/></g>
<g transform="translate(544,416) scale(5.3333333333333)"><rect width="6" height="6"/></g>
<g transform="translate(576,416) scale(5.3333333333333)"><rect width="6" height="6"/></g>
<g transform="translate(640,416) scale(5.3333333333333)"><rect width="6" height="6"/></g>
<g transform="translate(672,416) scale(5.3333333333333)"><rect width="6" height="6"/></g>
<g transform="translate(704,416) scale(5.3333333333333)"><rect width="6" height="6"/></g>
<g transform="translate(160,448) scale(5.3333333333333)"><rect width="6" height="6"/></g>
<g transform="translate(192,448) scale(5.3333333333333)"><rect width="6" height="6"/></g>
<g transform="translate(224,448) scale(5.3333333333333)"><rect width="6" height="6"/></g>
<g transform="translate(256,448) scale(5.3333333333333)"><rect width="6" height="6"/></g>
<g transform="translate(288,448) scale(5.3333333333333)"><rect width="6" height="6"/></g>
<g transform="translate(320,448) scale(5.3333333333333)"><rect width="6" height="6"/></g>
<g transform="translate(352,448) scale(5.3333333333333)"><rect width="6" height="6"/></g>
<g transform="translate(384,448) scale(5.3333333333333)"><rect width="6" height="6"/></g>
<g transform="translate(416,448) scale(5.3333333333333)"><rect width="6" height="6"/></g>
<g transform="translate(512,448) scale(5.3333333333333)"><rect width="6" height="6"/></g>
<g transform="translate(576,448) scale(5.3333333333333)"><rect width="6" height="6"/></g>
<g transform="translate(672,448) scale(5.3333333333333)"><rect width="6" height="6"/></g>
<g transform="translate(320,480) scale(5.3333333333333)"><rect width="6" height="6"/></g>
<g transform="translate(352,480) scale(5.3333333333333)"><rect width="6" height="6"/></g>
<g transform="translate(416,480) scale(5.3333333333333)"><rect width="6" height="6"/></g>
<g transform="translate(448,480) scale(5.3333333333333)"><rect width="6" height="6"/></g>
<g transform="translate(480,480) scale(5.3333333333333)"><rect width="6" height="6"/></g>
<g transform="translate(640,480) scale(5.3333333333333)"><rect width="6" height="6"/></g>
<g transform="translate(352,512) scale(5.3333333333333)"><rect width="6" height="6"/></g>
<g transform="translate(448,512) scale(5.3333333333333)"><rect width="6" height="6"/></g>
<g transform="translate(512,512) scale(5.3333333333333)"><rect width="6" height="6"/></g>
<g transform="translate(544,512) scale(5.3333333333333)"><rect width="6" height="6"/></g>
<g transform="translate(608,512) scale(5.3333333333333)"><rect width="6" height="6"/></g>
<g transform="translate(672,512) scale(5.3333333333333)"><rect width="6" height="6"/></g>
<g transform="translate(352,544) scale(5.3333333333333)"><rect width="6" height="6"/></g>
<g transform="translate(448,544) scale(5.3333333333333)"><rect width="6" height="6"/></g>
<g transform="translate(512,544) scale(5.3333333333333)"><rect width="6" height="6"/></g>
<g transform="translate(640,544) scale(5.3333333333333)"><rect width="6" height="6"/></g>
<g transform="translate(704,544) scale(5.3333333333333)"><rect width="6" height="6"/></g>
<g transform="translate(320,576) scale(5.3333333333333)"><rect width="6" height="6"/></g>
<g transform="translate(544,576) scale(5.3333333333333)"><rect width="6" height="6"/></g>
<g transform="translate(608,576) scale(5.3333333333333)"><rect width="6" height="6"/></g>
<g transform="translate(640,576) scale(5.3333333333333)"><rect width="6" height="6"/></g>
<g transform="translate(320,608) scale(5.3333333333333)"><rect width="6" height="6"/></g>
<g transform="translate(384,608) scale(5.3333333333333)"><rect width="6" height="6"/></g>
<g transform="translate(416,608) scale(5.3333333333333)"><rect width="6" height="6"/></g>
<g transform="translate(448,608) scale(5.3333333333333)"><rect width="6" height="6"/></g>
<g transform="translate(544,608) scale(5.3333333333333)"><rect width="6" height="6"/></g>
<g transform="translate(608,608) scale(5.3333333333333)"><rect width="6" height="6"/></g>
<g transform="translate(640,608) scale(5.3333333333333)"><rect width="6" height="6"/></g>
<g transform="translate(320,640) scale(5.3333333333333)"><rect width="6" height="6"/></g>
<g transform="translate(384,640) scale(5.3333333333333)"><rect width="6" height="6"/></g>
<g transform="translate(448,640) scale(5.3333333333333)"><rect width="6" height="6"/></g>
<g transform="translate(512,640) scale(5.3333333333333)"><rect width="6" height="6"/></g>
<g transform="translate(576,640) scale(5.3333333333333)"><rect width="6" height="6"/></g>
<g transform="translate(608,640) scale(5.3333333333333)"><rect width="6" height="6"/></g>
<g transform="translate(640,640) scale(5.3333333333333)"><rect width="6" height="6"/></g>
<g transform="translate(352,672) scale(5.3333333333333)"><rect width="6" height="6"/></g>
<g transform="translate(384,672) scale(5.3333333333333)"><rect width="6" height="6"/></g>
<g transform="translate(416,672) scale(5.3333333333333)"><rect width="6" height="6"/></g>
<g transform="translate(480,672) scale(5.3333333333333)"><rect width="6" height="6"/></g>
<g transform="translate(512,672) scale(5.3333333333333)"><rect width="6" height="6"/></g>
<g transform="translate(544,672) scale(5.3333333333333)"><rect width="6" height="6"/></g>
<g transform="translate(576,672) scale(5.3333333333333)"><rect width="6" height="6"/></g>
<g transform="translate(640,672) scale(5.3333333333333)"><rect width="6" height="6"/></g>
<g transform="translate(672,672) scale(5.3333333333333)"><rect width="6" height="6"/></g>
<g transform="translate(352,704) scale(5.3333333333333)"><rect width="6" height="6"/></g>
<g transform="translate(384,704) scale(5.3333333333333)"><rect width="6" height="6"/></g>
<g transform="translate(416,704) scale(5.3333333333333)"><rect width="6" height="6"/></g>
<g transform="translate(480,704) scale(5.3333333333333)"><rect width="6" height="6"/></g>
<g transform="translate(576,704) scale(5.3333333333333)"><rect width="6" height="6"/></g>
<g transform="translate(640,704) scale(5.3333333333333)"><rect width="6" height="6"/></g>
</g></mask></defs>
<rect width="800" height="800" fill="#ffffff" x="0" y="0" />
<rect x="0" y="0" width="800" height="800" mask="url(#qrmask)" fill="#000000" />
<g transform="translate(64,64)"  fill="#000000"><g transform="scale(16)"><path d="M0,0v14h14V0H0z M12,12H2V2h10V12z"/></g></g>
<g transform="translate(512,64)"  fill="#000000"><g transform="scale(16)"><path d="M0,0v14h14V0H0z M12,12H2V2h10V12z"/></g></g>
<g transform="translate(64,512)"  fill="#000000"><g transform="scale(16)"><path d="M0,0v14h14V0H0z M12,12H2V2h10V12z"/></g></g>
<g transform="translate(128,128)"  fill="#000000"><g transform="scale(16)"><rect width="6" height="6"/></g></g>
<g transform="translate(576,128)"  fill="#000000"><g transform="scale(16)"><rect width="6" height="6"/></g></g>
<g transform="translate(128,576)"  fill="#000000"><g transform="scale(16)"><rect width="6" height="6"/></g></g>
</svg>